{
  "accessors": [
    {
      "bufferView": 2,
      "componentType": 5126,
      "count": 65532,
      "max": [
        1.465093970298767,
        1.0556679964065552,
        1.072972059249878
      ],
      "min": [
        0.06176900863647461,
        0.0,
        0.005439043045043945
      ],
      "type": "VEC3"
    },
    {
      "bufferView": 2,
      "byteOffset": 786384,
      "componentType": 5126,
      "count": 65532,
      "max": [
        0.999973714351654,
        0.999984085559845,
        0.9999510049819946
      ],
      "min": [
        -0.9999727606773376,
        -0.9999668002128601,
        -0.9999892115592957
      ],
      "type": "VEC3"
    },
    {
      "bufferView": 1,
      "componentType": 5126,
      "count": 65532,
      "max": [
        0.9885450005531311,
        0.9964820146560669
      ],
      "min": [
        0.0036490000784397125,
        0.0035149999894201756
      ],
      "type": "VEC2"
    },
    {
      "bufferView": 0,
      "componentType": 5125,
      "count": 335841,
      "type": "SCALAR"
    },
    {
      "bufferView": 2,
      "byteOffset": 1572768,
      "componentType": 5126,
      "count": 65532,
      "max": [
        1.4391989707946777,
        1.0673999786376953,
        1.0165441036224365
      ],
      "min": [
        0.0,
        0.0,
        0.0
      ],
      "type": "VEC3"
    },
    {
      "bufferView": 2,
      "byteOffset": 2359152,
      "componentType": 5126,
      "count": 65532,
      "max": [
        0.9999794363975525,
        0.9999154806137085,
        0.9994738101959229
      ],
      "min": [
        -0.9999722838401794,
        -0.9999895095825195,
        -0.9999768137931824
      ],
      "type": "VEC3"
    },
    {
      "bufferView": 1,
      "byteOffset": 524256,
      "componentType": 5126,
      "count": 65532,
      "max": [
        0.9961850047111511,
        0.9990969896316528
      ],
      "min": [
        0.00457100011408329,
        0.0028909998945891857
      ],
      "type": "VEC2"
    },
    {
      "bufferView": 0,
      "byteOffset": 1343364,
      "componentType": 5125,
      "count": 323568,
      "type": "SCALAR"
    },
    {
      "bufferView": 2,
      "byteOffset": 3145536,
      "componentType": 5126,
      "count": 32206,
      "max": [
        1.465093970298767,
        0.946537971496582,
        1.0174790620803833
      ],
      "min": [
        0.024096965789794922,
        0.14852797985076904,
        0.6687780618667603
      ],
      "type": "VEC3"
    },
    {
      "bufferView": 2,
      "byteOffset": 3532008,
      "componentType": 5126,
      "count": 32206,
      "max": [
        0.9998834133148193,
        0.999984085559845,
        0.9979311227798462
      ],
      "min": [
        -0.9999727606773376,
        -0.9999129176139832,
        -0.9999703764915466
      ],
      "type": "VEC3"
    },
    {
      "bufferView": 1,
      "byteOffset": 1048512,
      "componentType": 5126,
      "count": 32206,
      "max": [
        0.988277018070221,
        0.9989200234413147
      ],
      "min": [
        0.0034370000939816236,
        0.00977999996393919
      ],
      "type": "VEC2"
    },
    {
      "bufferView": 0,
      "byteOffset": 2637636,
      "componentType": 5125,
      "count": 136977,
      "type": "SCALAR"
    }
  ],
  "asset": {
    "extras": {
      "author": "J. Víctor Febles (https://sketchfab.com/JVICTORFEBLESGLEZ)",
      "license": "CC-BY-4.0 (http://creativecommons.org/licenses/by/4.0/)",
      "source": "https://sketchfab.com/3d-models/mandibula-neandertal-c93c0f237c7443c6aa3111b1b9ca4c05",
      "title": "Mandíbula Neandertal"
    },
    "generator": "Sketchfab-12.67.0",
    "version": "2.0"
  },
  "bufferViews": [
    {
      "buffer": 0,
      "byteLength": 3185544,
      "name": "floatBufferViews",
      "target": 34963
    },
    {
      "buffer": 0,
      "byteLength": 1306160,
      "byteOffset": 3185544,
      "byteStride": 8,
      "name": "floatBufferViews",
      "target": 34962
    },
    {
      "buffer": 0,
      "byteLength": 3918480,
      "byteOffset": 4491704,
      "byteStride": 12,
      "name": "floatBufferViews",
      "target": 34962
    }
  ],
  "buffers": [
    {
      "byteLength": 8410184,
      "uri": "scene.bin"
    }
  ],
  "extensionsUsed": [
    "KHR_materials_unlit"
  ],
  "images": [
    {
      "uri": "textures/material_0_baseColor.jpeg"
    }
  ],
  "materials": [
    {
      "doubleSided": true,
      "extensions": {
        "KHR_materials_unlit": {}
      },
      "name": "material_0",
      "pbrMetallicRoughness": {
        "baseColorTexture": {
          "index": 0
        },
        "metallicFactor": 0.0
      }
    }
  ],
  "meshes": [
    {
      "name": "Object_0",
      "primitives": [
        {
          "attributes": {
            "NORMAL": 1,
            "POSITION": 0,
            "TEXCOORD_0": 2
          },
          "indices": 3,
          "material": 0,
          "mode": 4
        }
      ]
    },
    {
      "name": "Object_1",
      "primitives": [
        {
          "attributes": {
            "NORMAL": 5,
            "POSITION": 4,
            "TEXCOORD_0": 6
          },
          "indices": 7,
          "material": 0,
          "mode": 4
        }
      ]
    },
    {
      "name": "Object_2",
      "primitives": [
        {
          "attributes": {
            "NORMAL": 9,
            "POSITION": 8,
            "TEXCOORD_0": 10
          },
          "indices": 11,
          "material": 0,
          "mode": 4
        }
      ]
    }
  ],
  "nodes": [
    {
      "children": [
        1
      ],
      "matrix": [
        0.3605467975139618,
        0.19392605125904064,
        0.9123588800430298,
        0.0,
        -0.6007171869277954,
        -0.7000023722648622,
        0.38618066906929,
        0.0,
        0.7135438323020935,
        -0.6873058676719666,
        -0.13588888943195357,
        0.0,
        4.119999914564687e-07,
        -4.403999867008678e-07,
        -3.9860000811131623e-07,
        1.0
      ],
      "name": "Sketchfab_model"
    },
    {
      "children": [
        2,
        3,
        4
      ],
      "matrix": [
        1.0,
        0.0,
        0.0,
        0.0,
        0.0,
        1.0,
        0.0,
        0.0,
        0.0,
        0.0,
        1.0,
        0.0,
        -0.7325469851493835,
        -0.5336999893188477,
        -0.536486029624939,
        1.0
      ],
      "name": "model.obj.cleaner.gles"
    },
    {
      "mesh": 0,
      "name": "Object_2"
    },
    {
      "mesh": 1,
      "name": "Object_3"
    },
    {
      "mesh": 2,
      "name": "Object_4"
    }
  ],
  "samplers": [
    {
      "magFilter": 9729,
      "minFilter": 9987,
      "wrapS": 10497,
      "wrapT": 10497
    }
  ],
  "scene": 0,
  "scenes": [
    {
      "name": "Sketchfab_Scene",
      "nodes": [
        0
      ]
    }
  ],
  "textures": [
    {
      "sampler": 0,
      "source": 0
    }
  ]
}
