{
  "accessors": [
    {
      "bufferView": 1,
      "componentType": 5126,
      "count": 65532,
      "max": [
        1.0910876989364624,
        0.7608234286308289,
        0.9896905422210693
      ],
      "min": [
        -0.8194801211357117,
        -0.8577262759208679,
        -0.4657319188117981
      ],
      "type": "VEC3"
    },
    {
      "bufferView": 1,
      "byteOffset": 786384,
      "componentType": 5126,
      "count": 65532,
      "max": [
        0.9969580173492432,
        0.9999987483024597,
        0.999970555305481
      ],
      "min": [
        -0.9900694489479065,
        -0.9999828338623047,
        -0.618643045425415
      ],
      "type": "VEC3"
    },
    {
      "bufferView": 2,
      "componentType": 5126,
      "count": 65532,
      "max": [
        1.0,
        1.0,
        1.0,
        1.0
      ],
      "min": [
        0.8509804010391235,
        0.7254902124404907,
        0.5333333611488342,
        1.0
      ],
      "type": "VEC4"
    },
    {
      "bufferView": 0,
      "componentType": 5125,
      "count": 342363,
      "type": "SCALAR"
    },
    {
      "bufferView": 1,
      "byteOffset": 1572768,
      "componentType": 5126,
      "count": 65532,
      "max": [
        1.1056253910064697,
        0.7448683381080627,
        1.0583757162094116
      ],
      "min": [
        -0.9379853010177612,
        -0.8622191548347473,
        -2.7420973777770996
      ],
      "type": "VEC3"
    },
    {
      "bufferView": 1,
      "byteOffset": 2359152,
      "componentType": 5126,
      "count": 65532,
      "max": [
        0.9999873042106628,
        0.9999877214431763,
        0.9999337792396545
      ],
      "min": [
        -0.9997174143791199,
        -0.9999905228614807,
        -0.9995949268341064
      ],
      "type": "VEC3"
    },
    {
      "bufferView": 2,
      "byteOffset": 1048512,
      "componentType": 5126,
      "count": 65532,
      "max": [
        1.0,
        1.0,
        1.0,
        1.0
      ],
      "min": [
        0.7019608020782471,
        0.6235294342041016,
        0.4000000059604645,
        1.0
      ],
      "type": "VEC4"
    },
    {
      "bufferView": 0,
      "byteOffset": 1369452,
      "componentType": 5125,
      "count": 341712,
      "type": "SCALAR"
    },
    {
      "bufferView": 1,
      "byteOffset": 3145536,
      "componentType": 5126,
      "count": 65532,
      "max": [
        1.1640299558639526,
        0.342930406332016,
        0.9307831525802612
      ],
      "min": [
        -0.9302975535392761,
        -0.8808803558349609,
        -2.741274833679199
      ],
      "type": "VEC3"
    },
    {
      "bufferView": 1,
      "byteOffset": 3931920,
      "componentType": 5126,
      "count": 65532,
      "max": [
        0.9984978437423706,
        0.9993892908096313,
        0.9412465691566467
      ],
      "min": [
        -0.999997615814209,
        -0.9999932050704956,
        -0.9999916553497314
      ],
      "type": "VEC3"
    },
    {
      "bufferView": 2,
      "byteOffset": 2097024,
      "componentType": 5126,
      "count": 65532,
      "max": [
        1.0,
        1.0,
        1.0,
        1.0
      ],
      "min": [
        0.6627451181411743,
        0.5803921818733215,
        0.3764705955982208,
        1.0
      ],
      "type": "VEC4"
    },
    {
      "bufferView": 0,
      "byteOffset": 2736300,
      "componentType": 5125,
      "count": 342210,
      "type": "SCALAR"
    },
    {
      "bufferView": 1,
      "byteOffset": 4718304,
      "componentType": 5126,
      "count": 65532,
      "max": [
        1.1655983924865723,
        0.6105116009712219,
        0.9570555090904236
      ],
      "min": [
        -0.9290205836296082,
        -0.8771018385887146,
        -2.5951099395751953
      ],
      "type": "VEC3"
    },
    {
      "bufferView": 1,
      "byteOffset": 5504688,
      "componentType": 5126,
      "count": 65532,
      "max": [
        0.9999366998672485,
        0.9999140501022339,
        0.9998103380203247
      ],
      "min": [
        -0.9999939203262329,
        -0.9999910593032837,
        -0.9999916553497314
      ],
      "type": "VEC3"
    },
    {
      "bufferView": 2,
      "byteOffset": 3145536,
      "componentType": 5126,
      "count": 65532,
      "max": [
        1.0,
        1.0,
        1.0,
        1.0
      ],
      "min": [
        0.6705882549285889,
        0.5803921818733215,
        0.3803921639919281,
        1.0
      ],
      "type": "VEC4"
    },
    {
      "bufferView": 0,
      "byteOffset": 4105140,
      "componentType": 5125,
      "count": 335463,
      "type": "SCALAR"
    },
    {
      "bufferView": 1,
      "byteOffset": 6291072,
      "componentType": 5126,
      "count": 65532,
      "max": [
        1.1259597539901733,
        0.5888751745223999,
        0.5518800616264343
      ],
      "min": [
        -0.9542860984802246,
        -0.7103084921836853,
        -2.6315808296203613
      ],
      "type": "VEC3"
    },
    {
      "bufferView": 1,
      "byteOffset": 7077456,
      "componentType": 5126,
      "count": 65532,
      "max": [
        0.9999911785125732,
        0.9951816201210022,
        0.9994676113128662
      ],
      "min": [
        -0.9999995231628418,
        -0.984329342842102,
        -0.9996299743652344
      ],
      "type": "VEC3"
    },
    {
      "bufferView": 2,
      "byteOffset": 4194048,
      "componentType": 5126,
      "count": 65532,
      "max": [
        1.0,
        1.0,
        1.0,
        1.0
      ],
      "min": [
        0.7137255072593689,
        0.6274510025978088,
        0.40392157435417175,
        1.0
      ],
      "type": "VEC4"
    },
    {
      "bufferView": 0,
      "byteOffset": 5446992,
      "componentType": 5125,
      "count": 340560,
      "type": "SCALAR"
    },
    {
      "bufferView": 1,
      "byteOffset": 7863840,
      "componentType": 5126,
      "count": 65532,
      "max": [
        0.9076008200645447,
        0.7245346307754517,
        0.23671016097068787
      ],
      "min": [
        -0.8746893405914307,
        -0.5882313847541809,
        -2.113074779510498
      ],
      "type": "VEC3"
    },
    {
      "bufferView": 1,
      "byteOffset": 8650224,
      "componentType": 5126,
      "count": 65532,
      "max": [
        0.9999886155128479,
        0.9999845623970032,
        0.4328427314758301
      ],
      "min": [
        -0.9999991655349731,
        -0.6882680058479309,
        -0.9991720914840698
      ],
      "type": "VEC3"
    },
    {
      "bufferView": 2,
      "byteOffset": 5242560,
      "componentType": 5126,
      "count": 65532,
      "max": [
        1.0,
        1.0,
        1.0,
        1.0
      ],
      "min": [
        0.6705882549285889,
        0.5843137502670288,
        0.3803921639919281,
        1.0
      ],
      "type": "VEC4"
    },
    {
      "bufferView": 0,
      "byteOffset": 6809232,
      "componentType": 5125,
      "count": 355533,
      "type": "SCALAR"
    },
    {
      "bufferView": 1,
      "byteOffset": 9436608,
      "componentType": 5126,
      "count": 65532,
      "max": [
        1.1579291820526123,
        0.566821813583374,
        0.9887936115264893
      ],
      "min": [
        -0.9542860984802246,
        -0.5651892423629761,
        -2.738276958465576
      ],
      "type": "VEC3"
    },
    {
      "bufferView": 1,
      "byteOffset": 10222992,
      "componentType": 5126,
      "count": 65532,
      "max": [
        0.9999957084655762,
        0.9999949336051941,
        0.9999863505363464
      ],
      "min": [
        -0.9999988675117493,
        -0.999863862991333,
        -0.9997169971466064
      ],
      "type": "VEC3"
    },
    {
      "bufferView": 2,
      "byteOffset": 6291072,
      "componentType": 5126,
      "count": 65532,
      "max": [
        1.0,
        1.0,
        1.0,
        1.0
      ],
      "min": [
        0.6705882549285889,
        0.5843137502670288,
        0.3803921639919281,
        1.0
      ],
      "type": "VEC4"
    },
    {
      "bufferView": 0,
      "byteOffset": 8231364,
      "componentType": 5125,
      "count": 317592,
      "type": "SCALAR"
    },
    {
      "bufferView": 1,
      "byteOffset": 11009376,
      "componentType": 5126,
      "count": 65532,
      "max": [
        1.1656769514083862,
        -0.2104252427816391,
        1.0677276849746704
      ],
      "min": [
        -0.8424023389816284,
        -0.8786548972129822,
        -2.695873498916626
      ],
      "type": "VEC3"
    },
    {
      "bufferView": 1,
      "byteOffset": 11795760,
      "componentType": 5126,
      "count": 65532,
      "max": [
        0.9999997615814209,
        0.9999140501022339,
        0.9999135732650757
      ],
      "min": [
        -0.9998704791069031,
        -0.9999910593032837,
        -0.9995023608207703
      ],
      "type": "VEC3"
    },
    {
      "bufferView": 2,
      "byteOffset": 7339584,
      "componentType": 5126,
      "count": 65532,
      "max": [
        1.0,
        1.0,
        1.0,
        1.0
      ],
      "min": [
        0.6666666865348816,
        0.5803921818733215,
        0.3764705955982208,
        1.0
      ],
      "type": "VEC4"
    },
    {
      "bufferView": 0,
      "byteOffset": 9501732,
      "componentType": 5125,
      "count": 260844,
      "type": "SCALAR"
    },
    {
      "bufferView": 1,
      "byteOffset": 12582144,
      "componentType": 5126,
      "count": 65532,
      "max": [
        1.1542043685913086,
        0.6704919338226318,
        1.06389319896698
      ],
      "min": [
        -0.9528409838676453,
        -0.6018419861793518,
        -2.7411794662475586
      ],
      "type": "VEC3"
    },
    {
      "bufferView": 1,
      "byteOffset": 13368528,
      "componentType": 5126,
      "count": 65532,
      "max": [
        0.9999957084655762,
        0.9999993443489075,
        0.9999337792396545
      ],
      "min": [
        -0.9999867677688599,
        -0.9999303817749023,
        -0.9995949268341064
      ],
      "type": "VEC3"
    },
    {
      "bufferView": 2,
      "byteOffset": 8388096,
      "componentType": 5126,
      "count": 65532,
      "max": [
        1.0,
        1.0,
        1.0,
        1.0
      ],
      "min": [
        0.686274528503418,
        0.6000000238418579,
        0.4000000059604645,
        1.0
      ],
      "type": "VEC4"
    },
    {
      "bufferView": 0,
      "byteOffset": 10545108,
      "componentType": 5125,
      "count": 289419,
      "type": "SCALAR"
    },
    {
      "bufferView": 1,
      "byteOffset": 14154912,
      "componentType": 5126,
      "count": 65532,
      "max": [
        1.1472396850585938,
        0.7340768575668335,
        0.9522656798362732
      ],
      "min": [
        -0.9390574097633362,
        0.11622335016727448,
        -2.618932008743286
      ],
      "type": "VEC3"
    },
    {
      "bufferView": 1,
      "byteOffset": 14941296,
      "componentType": 5126,
      "count": 65532,
      "max": [
        0.9999383687973022,
        0.9999570846557617,
        0.9999969005584717
      ],
      "min": [
        -0.9999911189079285,
        -0.9998524188995361,
        -0.991790235042572
      ],
      "type": "VEC3"
    },
    {
      "bufferView": 2,
      "byteOffset": 9436608,
      "componentType": 5126,
      "count": 65532,
      "max": [
        1.0,
        1.0,
        1.0,
        1.0
      ],
      "min": [
        0.7137255072593689,
        0.6274510025978088,
        0.4117647111415863,
        1.0
      ],
      "type": "VEC4"
    },
    {
      "bufferView": 0,
      "byteOffset": 11702784,
      "componentType": 5125,
      "count": 279951,
      "type": "SCALAR"
    },
    {
      "bufferView": 1,
      "byteOffset": 15727680,
      "componentType": 5126,
      "count": 3509,
      "max": [
        0.7944843173027039,
        0.7382973432540894,
        0.855502724647522
      ],
      "min": [
        -0.51149982213974,
        0.6648895144462585,
        -0.24722163379192352
      ],
      "type": "VEC3"
    },
    {
      "bufferView": 1,
      "byteOffset": 15769788,
      "componentType": 5126,
      "count": 3509,
      "max": [
        0.6318045854568481,
        0.999790370464325,
        0.5931004881858826
      ],
      "min": [
        -0.5779507160186768,
        0.7063127756118774,
        -0.4876086115837097
      ],
      "type": "VEC3"
    },
    {
      "bufferView": 2,
      "byteOffset": 10485120,
      "componentType": 5126,
      "count": 3509,
      "max": [
        1.0,
        1.0,
        1.0,
        1.0
      ],
      "min": [
        0.9450980424880981,
        0.9176470637321472,
        0.8509804010391235,
        1.0
      ],
      "type": "VEC4"
    },
    {
      "bufferView": 0,
      "byteOffset": 12822588,
      "componentType": 5125,
      "count": 9093,
      "type": "SCALAR"
    }
  ],
  "asset": {
    "extras": {
      "author": "DH-ILUSTRATION (https://sketchfab.com/danielrodrigo95)",
      "license": "CC-BY-4.0 (http://creativecommons.org/licenses/by/4.0/)",
      "source": "https://sketchfab.com/3d-models/cavidad-clase-2-a42c1e239f184d3aa3afcf5fa67ca19a",
      "title": "Cavidad Clase 2"
    },
    "generator": "Sketchfab-15.22.0",
    "version": "2.0"
  },
  "bufferViews": [
    {
      "buffer": 0,
      "byteLength": 12858960,
      "name": "floatBufferViews",
      "target": 34963
    },
    {
      "buffer": 0,
      "byteLength": 15811896,
      "byteOffset": 12858960,
      "byteStride": 12,
      "name": "floatBufferViews",
      "target": 34962
    },
    {
      "buffer": 0,
      "byteLength": 10541264,
      "byteOffset": 28670856,
      "byteStride": 16,
      "name": "floatBufferViews",
      "target": 34962
    }
  ],
  "buffers": [
    {
      "byteLength": 39212120,
      "uri": "scene.bin"
    }
  ],
  "materials": [
    {
      "doubleSided": true,
      "name": "material_0",
      "pbrMetallicRoughness": {
        "baseColorFactor": [
          0.3309832317,
          0.3309832317,
          0.3309832317,
          1.0
        ],
        "metallicFactor": 0.1907393293,
        "roughnessFactor": 0.4
      }
    }
  ],
  "meshes": [
    {
      "name": "Object_0",
      "primitives": [
        {
          "attributes": {
            "COLOR_0": 2,
            "NORMAL": 1,
            "POSITION": 0
          },
          "indices": 3,
          "material": 0,
          "mode": 4
        }
      ]
    },
    {
      "name": "Object_1",
      "primitives": [
        {
          "attributes": {
            "COLOR_0": 6,
            "NORMAL": 5,
            "POSITION": 4
          },
          "indices": 7,
          "material": 0,
          "mode": 4
        }
      ]
    },
    {
      "name": "Object_2",
      "primitives": [
        {
          "attributes": {
            "COLOR_0": 10,
            "NORMAL": 9,
            "POSITION": 8
          },
          "indices": 11,
          "material": 0,
          "mode": 4
        }
      ]
    },
    {
      "name": "Object_3",
      "primitives": [
        {
          "attributes": {
            "COLOR_0": 14,
            "NORMAL": 13,
            "POSITION": 12
          },
          "indices": 15,
          "material": 0,
          "mode": 4
        }
      ]
    },
    {
      "name": "Object_4",
      "primitives": [
        {
          "attributes": {
            "COLOR_0": 18,
            "NORMAL": 17,
            "POSITION": 16
          },
          "indices": 19,
          "material": 0,
          "mode": 4
        }
      ]
    },
    {
      "name": "Object_5",
      "primitives": [
        {
          "attributes": {
            "COLOR_0": 22,
            "NORMAL": 21,
            "POSITION": 20
          },
          "indices": 23,
          "material": 0,
          "mode": 4
        }
      ]
    },
    {
      "name": "Object_6",
      "primitives": [
        {
          "attributes": {
            "COLOR_0": 26,
            "NORMAL": 25,
            "POSITION": 24
          },
          "indices": 27,
          "material": 0,
          "mode": 4
        }
      ]
    },
    {
      "name": "Object_7",
      "primitives": [
        {
          "attributes": {
            "COLOR_0": 30,
            "NORMAL": 29,
            "POSITION": 28
          },
          "indices": 31,
          "material": 0,
          "mode": 4
        }
      ]
    },
    {
      "name": "Object_8",
      "primitives": [
        {
          "attributes": {
            "COLOR_0": 34,
            "NORMAL": 33,
            "POSITION": 32
          },
          "indices": 35,
          "material": 0,
          "mode": 4
        }
      ]
    },
    {
      "name": "Object_9",
      "primitives": [
        {
          "attributes": {
            "COLOR_0": 38,
            "NORMAL": 37,
            "POSITION": 36
          },
          "indices": 39,
          "material": 0,
          "mode": 4
        }
      ]
    },
    {
      "name": "Object_10",
      "primitives": [
        {
          "attributes": {
            "COLOR_0": 42,
            "NORMAL": 41,
            "POSITION": 40
          },
          "indices": 43,
          "material": 0,
          "mode": 4
        }
      ]
    }
  ],
  "nodes": [
    {
      "children": [
        1
      ],
      "matrix": [
        5.316195964813232,
        0.0,
        0.0,
        0.0,
        0.0,
        1.1804326327109998e-15,
        -5.316195964813232,
        0.0,
        0.0,
        5.316195964813232,
        1.1804326327109998e-15,
        0.0,
        0.0,
        0.0,
        0.0,
        1.0
      ],
      "name": "Sketchfab_model"
    },
    {
      "children": [
        2,
        3,
        4,
        5,
        6,
        7,
        8,
        9,
        10,
        11,
        12
      ],
      "name": "cavidad clase 2 lista.OBJ.cleaner.materialmerger.gles"
    },
    {
      "mesh": 0,
      "name": "Object_2"
    },
    {
      "mesh": 1,
      "name": "Object_3"
    },
    {
      "mesh": 2,
      "name": "Object_4"
    },
    {
      "mesh": 3,
      "name": "Object_5"
    },
    {
      "mesh": 4,
      "name": "Object_6"
    },
    {
      "mesh": 5,
      "name": "Object_7"
    },
    {
      "mesh": 6,
      "name": "Object_8"
    },
    {
      "mesh": 7,
      "name": "Object_9"
    },
    {
      "mesh": 8,
      "name": "Object_10"
    },
    {
      "mesh": 9,
      "name": "Object_11"
    },
    {
      "mesh": 10,
      "name": "Object_12"
    }
  ],
  "scene": 0,
  "scenes": [
    {
      "name": "Sketchfab_Scene",
      "nodes": [
        0
      ]
    }
  ]
}
